<svg width="24" height="25" viewBox="0 0 24 25" fill="none" xmlns="http://www.w3.org/2000/svg">
<path d="M16.9201 22.5C14.1201 22.5 11.8401 20.23 11.8401 17.42C11.8401 14.62 14.1101 12.34 16.9201 12.34C19.7201 12.34 22.0001 14.61 22.0001 17.42C22.0001 20.23 19.7301 22.5 16.9201 22.5Z" fill="#CDCDCD"/>
<path d="M5.02 2.5H8.94C11.01 2.5 12.01 3.49999 11.96 5.51999V9.44C12.01 11.51 11.01 12.51 8.94 12.46H5.02C3 12.5 2 11.5 2 9.42999V5.51001C2 3.50001 3 2.5 5.02 2.5Z" fill="#CDCDCD"/>
<path d="M9.00993 8.76001C8.69993 8.76001 8.40994 8.64 8.13994 8.44C8.38994 8.04 8.56994 7.59001 8.65994 7.10001H8.99994C9.40994 7.10001 9.74994 6.76001 9.74994 6.35001C9.74994 5.94001 9.40994 5.60001 8.99994 5.60001H8.00993C7.99993 5.60001 7.98994 5.60001 7.98994 5.60001H7.96994H7.70995C7.66995 5.22001 7.35994 4.92001 6.96994 4.92001C6.57994 4.92001 6.26993 5.22001 6.22993 5.60001H4.93994C4.52994 5.60001 4.18994 5.94001 4.18994 6.35001C4.18994 6.76001 4.52994 7.10001 4.93994 7.10001H7.10994C6.80994 8.06001 5.94993 8.76001 4.92993 8.76001C4.51993 8.76001 4.17993 9.10001 4.17993 9.51001C4.17993 9.92001 4.51993 10.26 4.92993 10.26C5.73993 10.26 6.48994 9.99001 7.10994 9.54001C7.65994 10 8.31994 10.26 8.99994 10.26C9.40994 10.26 9.74994 9.92001 9.74994 9.51001C9.74994 9.10001 9.41993 8.76001 9.00993 8.76001Z" fill="#060307"/>
<path d="M9 23.25C4.73 23.25 1.25 19.77 1.25 15.5C1.25 15.09 1.59 14.75 2 14.75C2.41 14.75 2.75 15.09 2.75 15.5C2.75 18.46 4.81 20.94 7.58 21.59L7.31 21.14C7.1 20.78 7.21001 20.32 7.57001 20.11C7.92001 19.9 8.39001 20.01 8.60001 20.37L9.64999 22.12C9.78999 22.35 9.79 22.64 9.66 22.87C9.52 23.1 9.27 23.25 9 23.25Z" fill="#060307"/>
<path d="M21.9999 10.25C21.5899 10.25 21.2499 9.91 21.2499 9.5C21.2499 6.54 19.1899 4.06 16.4199 3.41L16.6899 3.85999C16.8999 4.21999 16.7899 4.68001 16.4299 4.89001C16.0799 5.10001 15.6099 4.99001 15.3999 4.63L14.3499 2.88C14.2099 2.65 14.2099 2.36 14.3399 2.13C14.4699 1.89 14.7199 1.75 14.9899 1.75C19.2599 1.75 22.7399 5.23 22.7399 9.5C22.7499 9.91 22.4099 10.25 21.9999 10.25Z" fill="#060307"/>
<path d="M19.73 18.83L17.59 14.56C17.46 14.31 17.2 14.14 16.92 14.14C16.64 14.14 16.38 14.3 16.25 14.55L14.11 18.82C13.92 19.19 14.07 19.64 14.45 19.83C14.56 19.88 14.67 19.91 14.78 19.91C15.05 19.91 15.32 19.76 15.45 19.5L15.62 19.16H18.2101L18.38 19.5C18.57 19.87 19.02 20.02 19.39 19.84C19.77 19.65 19.92 19.2 19.73 18.83ZM16.38 17.66L16.93 16.57L17.48 17.66H16.38Z" fill="#060307"/>
</svg>
